PathFileType	4	(X/Y/Z)	s10c0301.trc
DataRate	CameraRate	NumFrames	NumMarkers	Units	OrigDataRate	OrigDataStartFrame	OrigNumFrames
200	200	4	50	mm	200	1500	2000
Frame#	Time	racr			lacr			c7			jug			rlel			rdr			llel			ldr			s2			lic			ric			lasi			rasi			rpsi			lpsi			rgt			lgt			rth1			rth2			rth3			rth4			rlfc			rmfc			rsh1			rsh2			rsh3			rsh4			rlmal			rmmal			rcal			rtoe			rmt5			lth1			lth2			lth4			lth3			llfc			lmfc			llmal			lmmal			lcal			lmt5			lsh1			lsh2			lsh3			lsh4			ltoe			SBIKE			LBIKE			RBIKE			
		X1	Y1	Z1	X2	Y2	Z2	X3	Y3	Z3	X4	Y4	Z4	X5	Y5	Z5	X6	Y6	Z6	X7	Y7	Z7	X8	Y8	Z8	X9	Y9	Z9	X10	Y10	Z10	X11	Y11	Z11	X12	Y12	Z12	X13	Y13	Z13	X14	Y14	Z14	X15	Y15	Z15	X16	Y16	Z16	X17	Y17	Z17	X18	Y18	Z18	X19	Y19	Z19	X20	Y20	Z20	X21	Y21	Z21	X22	Y22	Z22	X23	Y23	Z23	X24	Y24	Z24	X25	Y25	Z25	X26	Y26	Z26	X27	Y27	Z27	X28	Y28	Z28	X29	Y29	Z29	X30	Y30	Z30	X31	Y31	Z31	X32	Y32	Z32	X33	Y33	Z33	X34	Y34	Z34	X35	Y35	Z35	X36	Y36	Z36	X37	Y37	Z37	X38	Y38	Z38	X39	Y39	Z39	X40	Y40	Z40	X41	Y41	Z41	X42	Y42	Z42	X43	Y43	Z43	X44	Y44	Z44	X45	Y45	Z45	X46	Y46	Z46	X47	Y47	Z47	X48	Y48	Z48	X49	Y49	Z49	X50	Y50	Z50	
1500	7.5000	696.900314	1335.004035	-68.183402	676.012595	1304.284343	-373.730481	669.145140	1339.628694	-218.581818	660.385001	1195.129390	-201.048865	623.328686	1080.068435	34.316708	645.688262	874.566483	-54.503190	556.691374	1067.739595	-494.932075	644.529556	887.608557	-423.056647	137.558497	1133.478608	-208.394080	304.108020	1132.500556	-363.035502	319.161160	1138.231924	-60.772032	316.223684	1048.325798	-336.503658	314.027099	1051.457595	-94.597581	189.531688	1184.538568	-157.386876	189.516042	1188.326509	-269.680726	225.486109	1036.637319	-23.409679	171.074334	1001.613450	-401.820348	309.971722	926.097915	-7.651028	385.851304	882.631072	-24.652840	428.111328	808.440059	-29.050052	408.603992	909.549797	-38.222295	491.088351	727.666993	-50.141833	467.797096	718.495759	-167.083893	379.865026	692.036154	-16.979751	310.041592	638.135707	-33.386522	225.637511	624.422240	-34.631488	323.404826	615.952948	-61.504558	130.431596	591.337540	-46.966970	151.166791	584.995161	-130.076167	88.610413	630.306665	-94.753855	170.532532	401.469753	-107.712265	116.825479	463.130079	-41.833917	204.457371	875.725041	-420.196123	245.637178	801.450563	-403.250508	280.589922	811.376186	-397.022019	242.307093	713.850995	-387.167568	281.625912	613.868915	-366.301097	259.051200	609.130762	-254.690542	134.962558	263.996788	-379.508343	152.276970	261.982470	-296.481132	80.428468	241.658588	-337.391978	238.047774	161.011540	-402.427322	206.030405	511.520981	-406.565594	208.389802	425.242706	-393.870759	165.287343	347.162420	-390.858131	237.744973	420.795885	-369.950226	325.112331	174.740489	-346.461339	-217.816015	833.474228	-214.390299	-104.001659	80.475222	-418.312838	-104.014672	80.457487	-18.320463	
1501	7.5050	697.028297	1334.996947	-66.551089	675.525905	1304.376556	-371.720318	668.699586	1339.603770	-217.113359	660.028288	1195.115821	-199.579588	622.848623	1079.461501	35.034297	645.578045	874.511588	-54.331833	557.234872	1067.963580	-493.500948	644.673411	887.340248	-422.916628	136.985861	1130.690378	-210.992967	306.418512	1129.154545	-363.454910	317.054345	1136.313133	-61.598859	317.462105	1044.950457	-335.817448	312.165424	1051.035095	-95.639146	188.303331	1182.258323	-159.929474	190.574699	1185.876506	-273.007353	222.741331	1035.191359	-23.461814	174.342370	999.149211	-404.733015	309.690839	928.762917	-8.899285	387.208780	887.554793	-25.026781	432.254989	815.017417	-27.944813	408.983351	915.088703	-38.691935	496.913927	735.231630	-49.045070	474.749579	725.079425	-166.749159	385.650170	699.395403	-16.263206	316.204186	645.539428	-32.717423	231.328387	631.867914	-34.573077	329.592194	623.325816	-60.605742	135.744501	597.475750	-47.935353	157.042088	592.416565	-130.429612	92.717657	635.034321	-95.194124	181.151881	408.566016	-108.586187	126.515652	469.057579	-42.050288	203.590201	874.687303	-421.258965	242.481777	799.441289	-404.047071	277.898351	808.216968	-396.934831	236.798116	711.818534	-388.460391	273.703677	610.806660	-366.799504	248.878000	606.978178	-255.107834	127.140066	261.069145	-379.488181	144.648772	258.837646	-296.716385	72.716830	239.878857	-337.454312	228.806202	156.038282	-402.324596	198.831473	508.116460	-406.798079	200.736237	421.872283	-393.751175	157.342463	343.925292	-390.969951	229.968952	417.422149	-369.656861	316.090475	168.223517	-346.358027	-217.833972	833.497208	-214.420211	-104.037442	80.424821	-418.310858	-104.013165	80.452025	-18.327916	
1502	7.5100	697.140238	1334.896646	-64.982694	675.106334	1304.453983	-369.595746	668.256552	1339.477081	-215.631413	659.908439	1194.974118	-198.137338	622.415665	1078.914815	35.813901	645.415504	874.485279	-54.153250	557.744756	1068.245239	-492.011832	644.902123	887.009125	-422.620060	136.410608	1128.037513	-213.954514	308.701168	1125.773505	-363.633471	315.229441	1134.442683	-62.345318	318.714851	1041.276234	-334.670618	310.781156	1050.628096	-95.764082	186.825440	1180.224610	-162.328874	191.589189	1183.599686	-275.507885	219.542450	1034.069084	-23.767735	177.778111	997.058769	-407.619834	309.286824	931.249857	-9.835826	388.384581	892.555759	-24.930505	435.909943	821.710993	-26.578014	409.109492	920.603884	-39.335575	502.649804	742.598750	-47.950586	481.568002	731.652086	-166.460630	391.105607	706.840034	-15.488887	322.182339	653.014786	-31.794849	237.154228	638.973950	-34.527465	335.619794	630.465747	-59.735890	141.682094	602.904481	-48.726184	163.302113	598.899570	-130.697508	97.322952	639.251102	-95.637991	192.480290	415.339164	-108.870171	136.095242	474.368766	-42.349379	202.756160	873.721792	-422.234475	239.623523	797.548401	-405.065128	275.106247	805.362790	-397.230779	231.672840	709.981695	-390.110443	265.866913	608.032157	-367.705633	239.536320	604.987094	-256.162766	119.224859	258.739419	-379.782116	136.828631	256.473372	-297.240033	64.839042	238.993311	-338.018151	219.230712	151.798907	-402.123545	191.991515	505.134845	-407.381898	193.440449	418.964032	-393.936224	149.736821	341.216915	-391.379510	222.287513	414.419995	-369.383608	306.763916	162.309177	-346.124789	-217.957007	833.289145	-214.358252	-104.047725	80.424289	-418.332606	-104.011461	80.469258	-18.343449	
1503	7.5150	697.194440	1334.683198	-63.529911	674.723460	1304.535359	-367.536908	667.931336	1339.292119	-215.241110	658.735948	1194.858169	-197.613362	622.074140	1078.265372	36.641936	645.244582	874.498622	-53.921962	558.340263	1068.476779	-490.545269	645.185692	886.667050	-422.112827	137.009464	1125.448638	-219.339891	311.230191	1122.674929	-363.814450	313.463405	1132.855632	-63.107917	320.095984	1038.876082	-333.994550	310.221333	1049.730042	-94.243265	185.656445	1178.078205	-164.815226	192.716615	1180.829127	-278.076628	215.975440	1033.206198	-24.356232	181.088348	995.492755	-410.183167	308.868208	933.844518	-10.574918	389.345250	897.711030	-24.572418	439.131518	828.262757	-25.120722	409.489208	926.350903	-38.953427	508.271172	750.130957	-46.740984	488.240536	738.214091	-166.223727	396.637458	714.273504	-14.871548	328.003453	660.318452	-31.091883	243.048418	645.943835	-34.535334	341.691242	637.185277	-58.823291	147.987835	607.626690	-49.231287	169.959732	604.473094	-130.884776	102.341286	642.470333	-96.098791	203.823657	421.396346	-109.072002	145.869485	478.891228	-42.658272	201.993256	872.903953	-423.320586	238.440012	796.549600	-407.145805	272.570860	802.830560	-397.730565	226.905844	708.500727	-392.048108	258.024440	605.467928	-368.609274	231.264692	603.321884	-257.514797	111.122494	256.818485	-380.281998	128.907429	254.854380	-297.979176	56.737714	238.321064	-338.274322	209.490794	148.014730	-402.023115	185.255271	502.791879	-408.202546	186.303022	416.694154	-394.388387	142.441518	338.943430	-392.142778	214.845428	412.109869	-369.475392	297.165366	157.160106	-345.897862	-217.970838	833.291062	-214.390125	-104.028886	80.437458	-418.332426	-104.011033	80.456159	-18.330555	
